<mxfile host="app.diagrams.net" agent="Mozilla/5.0 (Windows NT 10.0; Win64; x64; rv:137.0) Gecko/20100101 Firefox/137.0" version="26.2.14">
  <diagram name="Page-1" id="IQRt8BmCdM-ZMYjNGfV5">
    <mxGraphModel dx="1213" dy="738" grid="1" gridSize="10" guides="1" tooltips="1" connect="1" arrows="1" fold="1" page="1" pageScale="1" pageWidth="850" pageHeight="1100" math="0" shadow="0">
      <root>
        <mxCell id="0" />
        <mxCell id="1" parent="0" />
        <mxCell id="h6TdtqrDm6KFS-MrkBvc-1" value="Actor" style="shape=umlActor;verticalLabelPosition=bottom;verticalAlign=top;html=1;outlineConnect=0;" parent="1" vertex="1">
          <mxGeometry x="40" y="40" width="30" height="60" as="geometry" />
        </mxCell>
        <mxCell id="h6TdtqrDm6KFS-MrkBvc-3" value="&lt;div&gt;&amp;lt;&amp;lt;Boundary&amp;gt;&amp;gt;&lt;/div&gt;&lt;div&gt;Main&lt;/div&gt;" style="rounded=0;whiteSpace=wrap;html=1;" parent="1" vertex="1">
          <mxGeometry x="200" y="20" width="80" height="40" as="geometry" />
        </mxCell>
        <mxCell id="h6TdtqrDm6KFS-MrkBvc-4" value="&lt;div&gt;LoginController&lt;/div&gt;" style="rounded=0;whiteSpace=wrap;html=1;" parent="1" vertex="1">
          <mxGeometry x="480" y="70" width="100" height="40" as="geometry" />
        </mxCell>
        <mxCell id="h6TdtqrDm6KFS-MrkBvc-5" value="" style="rounded=0;whiteSpace=wrap;html=1;" parent="1" vertex="1">
          <mxGeometry x="235" y="100" width="10" height="70" as="geometry" />
        </mxCell>
        <mxCell id="h6TdtqrDm6KFS-MrkBvc-6" value="BossWindow" style="rounded=0;whiteSpace=wrap;html=1;" parent="1" vertex="1">
          <mxGeometry x="670" y="410" width="100" height="40" as="geometry" />
        </mxCell>
        <mxCell id="h6TdtqrDm6KFS-MrkBvc-7" value="Service" style="rounded=0;whiteSpace=wrap;html=1;" parent="1" vertex="1">
          <mxGeometry x="930" y="100" width="90" height="40" as="geometry" />
        </mxCell>
        <mxCell id="h6TdtqrDm6KFS-MrkBvc-8" value="UserRepo" style="rounded=0;whiteSpace=wrap;html=1;" parent="1" vertex="1">
          <mxGeometry x="1140" y="115" width="80" height="40" as="geometry" />
        </mxCell>
        <mxCell id="h6TdtqrDm6KFS-MrkBvc-9" value="&lt;div&gt;PresentWorker&lt;/div&gt;&lt;div&gt;Repo&lt;/div&gt;" style="rounded=0;whiteSpace=wrap;html=1;" parent="1" vertex="1">
          <mxGeometry x="1290" y="130" width="90" height="40" as="geometry" />
        </mxCell>
        <mxCell id="h6TdtqrDm6KFS-MrkBvc-10" value="Database" style="rounded=0;whiteSpace=wrap;html=1;" parent="1" vertex="1">
          <mxGeometry x="1600" y="20" width="90" height="70" as="geometry" />
        </mxCell>
        <mxCell id="h6TdtqrDm6KFS-MrkBvc-11" value="" style="endArrow=none;dashed=1;html=1;dashPattern=1 3;strokeWidth=2;rounded=0;exitX=1;exitY=0;exitDx=0;exitDy=0;entryX=0;entryY=0.75;entryDx=0;entryDy=0;" parent="1" source="h6TdtqrDm6KFS-MrkBvc-5" target="h6TdtqrDm6KFS-MrkBvc-4" edge="1">
          <mxGeometry width="50" height="50" relative="1" as="geometry">
            <mxPoint x="570" y="390" as="sourcePoint" />
            <mxPoint x="620" y="340" as="targetPoint" />
          </mxGeometry>
        </mxCell>
        <mxCell id="h6TdtqrDm6KFS-MrkBvc-16" value="&amp;lt;&amp;lt;create&amp;gt;&amp;gt;" style="edgeLabel;html=1;align=center;verticalAlign=middle;resizable=0;points=[];" parent="h6TdtqrDm6KFS-MrkBvc-11" vertex="1" connectable="0">
          <mxGeometry x="0.0087" y="-3" relative="1" as="geometry">
            <mxPoint y="-13" as="offset" />
          </mxGeometry>
        </mxCell>
        <mxCell id="h6TdtqrDm6KFS-MrkBvc-12" value="" style="endArrow=none;dashed=1;html=1;dashPattern=1 3;strokeWidth=2;rounded=0;entryX=0;entryY=0;entryDx=0;entryDy=0;exitX=1;exitY=1;exitDx=0;exitDy=0;" parent="1" target="h6TdtqrDm6KFS-MrkBvc-6" edge="1">
          <mxGeometry width="50" height="50" relative="1" as="geometry">
            <mxPoint x="535" y="410" as="sourcePoint" />
            <mxPoint x="740" y="310" as="targetPoint" />
          </mxGeometry>
        </mxCell>
        <mxCell id="h6TdtqrDm6KFS-MrkBvc-19" value="&amp;lt;&amp;lt;create&amp;gt;&amp;gt;" style="edgeLabel;html=1;align=center;verticalAlign=middle;resizable=0;points=[];" parent="h6TdtqrDm6KFS-MrkBvc-12" vertex="1" connectable="0">
          <mxGeometry x="0.6653" y="2" relative="1" as="geometry">
            <mxPoint x="-47" y="-8" as="offset" />
          </mxGeometry>
        </mxCell>
        <mxCell id="h6TdtqrDm6KFS-MrkBvc-13" value="" style="endArrow=none;dashed=1;html=1;dashPattern=1 3;strokeWidth=2;rounded=0;entryX=0.833;entryY=0.39;entryDx=0;entryDy=0;entryPerimeter=0;exitX=0;exitY=0.75;exitDx=0;exitDy=0;" parent="1" source="h6TdtqrDm6KFS-MrkBvc-7" target="h6TdtqrDm6KFS-MrkBvc-5" edge="1">
          <mxGeometry width="50" height="50" relative="1" as="geometry">
            <mxPoint x="570" y="390" as="sourcePoint" />
            <mxPoint x="620" y="340" as="targetPoint" />
          </mxGeometry>
        </mxCell>
        <mxCell id="h6TdtqrDm6KFS-MrkBvc-18" value="&amp;lt;&amp;lt;create&amp;gt;&amp;gt;" style="edgeLabel;html=1;align=center;verticalAlign=middle;resizable=0;points=[];" parent="h6TdtqrDm6KFS-MrkBvc-13" vertex="1" connectable="0">
          <mxGeometry x="-0.6753" y="-1" relative="1" as="geometry">
            <mxPoint y="-9" as="offset" />
          </mxGeometry>
        </mxCell>
        <mxCell id="h6TdtqrDm6KFS-MrkBvc-14" value="" style="endArrow=none;dashed=1;html=1;dashPattern=1 3;strokeWidth=2;rounded=0;entryX=0;entryY=1;entryDx=0;entryDy=0;exitX=1;exitY=0.75;exitDx=0;exitDy=0;" parent="1" source="h6TdtqrDm6KFS-MrkBvc-5" target="h6TdtqrDm6KFS-MrkBvc-8" edge="1">
          <mxGeometry width="50" height="50" relative="1" as="geometry">
            <mxPoint x="250" y="145" as="sourcePoint" />
            <mxPoint x="620" y="340" as="targetPoint" />
          </mxGeometry>
        </mxCell>
        <mxCell id="h6TdtqrDm6KFS-MrkBvc-17" value="&amp;lt;&amp;lt;create&amp;gt;&amp;gt;" style="edgeLabel;html=1;align=center;verticalAlign=middle;resizable=0;points=[];" parent="h6TdtqrDm6KFS-MrkBvc-14" vertex="1" connectable="0">
          <mxGeometry x="-0.1045" y="1" relative="1" as="geometry">
            <mxPoint y="-13" as="offset" />
          </mxGeometry>
        </mxCell>
        <mxCell id="h6TdtqrDm6KFS-MrkBvc-15" value="" style="endArrow=none;dashed=1;html=1;dashPattern=1 3;strokeWidth=2;rounded=0;entryX=0;entryY=0.75;entryDx=0;entryDy=0;exitX=1;exitY=0.857;exitDx=0;exitDy=0;exitPerimeter=0;" parent="1" source="h6TdtqrDm6KFS-MrkBvc-5" target="h6TdtqrDm6KFS-MrkBvc-9" edge="1">
          <mxGeometry width="50" height="50" relative="1" as="geometry">
            <mxPoint x="570" y="390" as="sourcePoint" />
            <mxPoint x="620" y="340" as="targetPoint" />
          </mxGeometry>
        </mxCell>
        <mxCell id="h6TdtqrDm6KFS-MrkBvc-20" value="LoginWindow" style="rounded=0;whiteSpace=wrap;html=1;" parent="1" vertex="1">
          <mxGeometry x="270" y="190" width="90" height="30" as="geometry" />
        </mxCell>
        <mxCell id="h6TdtqrDm6KFS-MrkBvc-21" value="" style="rounded=0;whiteSpace=wrap;html=1;" parent="1" vertex="1">
          <mxGeometry x="525" y="190" width="10" height="80" as="geometry" />
        </mxCell>
        <mxCell id="h6TdtqrDm6KFS-MrkBvc-22" value="" style="endArrow=classic;html=1;rounded=0;entryX=1;entryY=0.667;entryDx=0;entryDy=0;exitX=0;exitY=0.25;exitDx=0;exitDy=0;entryPerimeter=0;" parent="1" source="h6TdtqrDm6KFS-MrkBvc-21" target="h6TdtqrDm6KFS-MrkBvc-20" edge="1">
          <mxGeometry width="50" height="50" relative="1" as="geometry">
            <mxPoint x="520" y="220" as="sourcePoint" />
            <mxPoint x="650" y="340" as="targetPoint" />
          </mxGeometry>
        </mxCell>
        <mxCell id="h6TdtqrDm6KFS-MrkBvc-23" value="2. show" style="edgeLabel;html=1;align=center;verticalAlign=middle;resizable=0;points=[];" parent="h6TdtqrDm6KFS-MrkBvc-22" vertex="1" connectable="0">
          <mxGeometry x="-0.2848" relative="1" as="geometry">
            <mxPoint x="-26" y="-9" as="offset" />
          </mxGeometry>
        </mxCell>
        <mxCell id="h6TdtqrDm6KFS-MrkBvc-25" value="" style="endArrow=none;dashed=1;html=1;dashPattern=1 3;strokeWidth=2;rounded=0;entryX=1;entryY=0;entryDx=0;entryDy=0;exitX=0;exitY=0;exitDx=0;exitDy=0;" parent="1" source="h6TdtqrDm6KFS-MrkBvc-21" target="h6TdtqrDm6KFS-MrkBvc-20" edge="1">
          <mxGeometry width="50" height="50" relative="1" as="geometry">
            <mxPoint x="500" y="170" as="sourcePoint" />
            <mxPoint x="650" y="340" as="targetPoint" />
          </mxGeometry>
        </mxCell>
        <mxCell id="h6TdtqrDm6KFS-MrkBvc-27" value="&amp;lt;&amp;lt;create&amp;gt;&amp;gt;" style="edgeLabel;html=1;align=center;verticalAlign=middle;resizable=0;points=[];" parent="h6TdtqrDm6KFS-MrkBvc-25" vertex="1" connectable="0">
          <mxGeometry x="-0.0788" y="-3" relative="1" as="geometry">
            <mxPoint x="-9" y="-7" as="offset" />
          </mxGeometry>
        </mxCell>
        <mxCell id="h6TdtqrDm6KFS-MrkBvc-28" value="" style="rounded=0;whiteSpace=wrap;html=1;" parent="1" vertex="1">
          <mxGeometry x="310" y="260" width="10" height="50" as="geometry" />
        </mxCell>
        <mxCell id="h6TdtqrDm6KFS-MrkBvc-29" value="" style="endArrow=none;dashed=1;html=1;dashPattern=1 3;strokeWidth=2;rounded=0;entryX=0.5;entryY=0.5;entryDx=0;entryDy=0;entryPerimeter=0;" parent="1" target="h6TdtqrDm6KFS-MrkBvc-1" edge="1">
          <mxGeometry width="50" height="50" relative="1" as="geometry">
            <mxPoint x="55" y="600" as="sourcePoint" />
            <mxPoint x="650" y="400" as="targetPoint" />
          </mxGeometry>
        </mxCell>
        <mxCell id="h6TdtqrDm6KFS-MrkBvc-30" value="" style="endArrow=classic;html=1;rounded=0;entryX=0;entryY=0;entryDx=0;entryDy=0;" parent="1" target="h6TdtqrDm6KFS-MrkBvc-28" edge="1">
          <mxGeometry width="50" height="50" relative="1" as="geometry">
            <mxPoint x="60" y="260" as="sourcePoint" />
            <mxPoint x="650" y="400" as="targetPoint" />
          </mxGeometry>
        </mxCell>
        <mxCell id="h6TdtqrDm6KFS-MrkBvc-31" value="3. Insert Credentials" style="edgeLabel;html=1;align=center;verticalAlign=middle;resizable=0;points=[];" parent="h6TdtqrDm6KFS-MrkBvc-30" vertex="1" connectable="0">
          <mxGeometry x="-0.008" y="2" relative="1" as="geometry">
            <mxPoint x="-4" y="-8" as="offset" />
          </mxGeometry>
        </mxCell>
        <mxCell id="h6TdtqrDm6KFS-MrkBvc-32" value="" style="rounded=0;whiteSpace=wrap;html=1;" parent="1" vertex="1">
          <mxGeometry x="525" y="310" width="10" height="150" as="geometry" />
        </mxCell>
        <mxCell id="h6TdtqrDm6KFS-MrkBvc-33" value="" style="endArrow=classic;html=1;rounded=0;entryX=0;entryY=0.75;entryDx=0;entryDy=0;" parent="1" target="h6TdtqrDm6KFS-MrkBvc-28" edge="1">
          <mxGeometry width="50" height="50" relative="1" as="geometry">
            <mxPoint x="60" y="298" as="sourcePoint" />
            <mxPoint x="650" y="400" as="targetPoint" />
          </mxGeometry>
        </mxCell>
        <mxCell id="h6TdtqrDm6KFS-MrkBvc-34" value="4. Press Log in" style="edgeLabel;html=1;align=center;verticalAlign=middle;resizable=0;points=[];" parent="h6TdtqrDm6KFS-MrkBvc-33" vertex="1" connectable="0">
          <mxGeometry x="0.2239" y="-4" relative="1" as="geometry">
            <mxPoint x="-33" y="-17" as="offset" />
          </mxGeometry>
        </mxCell>
        <mxCell id="h6TdtqrDm6KFS-MrkBvc-35" value="" style="endArrow=classic;html=1;rounded=0;exitX=1;exitY=1;exitDx=0;exitDy=0;entryX=0;entryY=0;entryDx=0;entryDy=0;" parent="1" source="h6TdtqrDm6KFS-MrkBvc-28" target="h6TdtqrDm6KFS-MrkBvc-32" edge="1">
          <mxGeometry width="50" height="50" relative="1" as="geometry">
            <mxPoint x="600" y="450" as="sourcePoint" />
            <mxPoint x="650" y="400" as="targetPoint" />
          </mxGeometry>
        </mxCell>
        <mxCell id="h6TdtqrDm6KFS-MrkBvc-36" value="5. handleLogin" style="edgeLabel;html=1;align=center;verticalAlign=middle;resizable=0;points=[];" parent="h6TdtqrDm6KFS-MrkBvc-35" vertex="1" connectable="0">
          <mxGeometry x="-0.0537" y="1" relative="1" as="geometry">
            <mxPoint x="3" y="-9" as="offset" />
          </mxGeometry>
        </mxCell>
        <mxCell id="h6TdtqrDm6KFS-MrkBvc-37" value="" style="rounded=0;whiteSpace=wrap;html=1;" parent="1" vertex="1">
          <mxGeometry x="970" y="320" width="10" height="90" as="geometry" />
        </mxCell>
        <mxCell id="h6TdtqrDm6KFS-MrkBvc-38" value="" style="endArrow=classic;html=1;rounded=0;entryX=0;entryY=0;entryDx=0;entryDy=0;exitX=0.933;exitY=0.077;exitDx=0;exitDy=0;exitPerimeter=0;" parent="1" source="h6TdtqrDm6KFS-MrkBvc-32" target="h6TdtqrDm6KFS-MrkBvc-37" edge="1">
          <mxGeometry width="50" height="50" relative="1" as="geometry">
            <mxPoint x="810" y="470" as="sourcePoint" />
            <mxPoint x="860" y="420" as="targetPoint" />
          </mxGeometry>
        </mxCell>
        <mxCell id="h6TdtqrDm6KFS-MrkBvc-39" value="6. loginBoss" style="edgeLabel;html=1;align=center;verticalAlign=middle;resizable=0;points=[];" parent="h6TdtqrDm6KFS-MrkBvc-38" vertex="1" connectable="0">
          <mxGeometry x="0.0801" y="-2" relative="1" as="geometry">
            <mxPoint x="-9" y="-11" as="offset" />
          </mxGeometry>
        </mxCell>
        <mxCell id="h6TdtqrDm6KFS-MrkBvc-40" value="" style="rounded=0;whiteSpace=wrap;html=1;" parent="1" vertex="1">
          <mxGeometry x="1175" y="340" width="10" height="40" as="geometry" />
        </mxCell>
        <mxCell id="h6TdtqrDm6KFS-MrkBvc-41" value="" style="endArrow=classic;html=1;rounded=0;exitX=1;exitY=0.25;exitDx=0;exitDy=0;entryX=0;entryY=0;entryDx=0;entryDy=0;" parent="1" source="h6TdtqrDm6KFS-MrkBvc-37" target="h6TdtqrDm6KFS-MrkBvc-40" edge="1">
          <mxGeometry width="50" height="50" relative="1" as="geometry">
            <mxPoint x="810" y="470" as="sourcePoint" />
            <mxPoint x="1170" y="345" as="targetPoint" />
          </mxGeometry>
        </mxCell>
        <mxCell id="h6TdtqrDm6KFS-MrkBvc-42" value="7. findByNameAndPassword" style="edgeLabel;html=1;align=center;verticalAlign=middle;resizable=0;points=[];" parent="h6TdtqrDm6KFS-MrkBvc-41" vertex="1" connectable="0">
          <mxGeometry x="-0.0105" y="2" relative="1" as="geometry">
            <mxPoint y="-13" as="offset" />
          </mxGeometry>
        </mxCell>
        <mxCell id="h6TdtqrDm6KFS-MrkBvc-43" value="" style="rounded=0;whiteSpace=wrap;html=1;" parent="1" vertex="1">
          <mxGeometry x="1640" y="360" width="10" height="30" as="geometry" />
        </mxCell>
        <mxCell id="h6TdtqrDm6KFS-MrkBvc-44" value="" style="endArrow=classic;html=1;rounded=0;exitX=1;exitY=0.5;exitDx=0;exitDy=0;entryX=0;entryY=0;entryDx=0;entryDy=0;" parent="1" source="h6TdtqrDm6KFS-MrkBvc-40" target="h6TdtqrDm6KFS-MrkBvc-43" edge="1">
          <mxGeometry width="50" height="50" relative="1" as="geometry">
            <mxPoint x="1200" y="470" as="sourcePoint" />
            <mxPoint x="1250" y="420" as="targetPoint" />
          </mxGeometry>
        </mxCell>
        <mxCell id="h6TdtqrDm6KFS-MrkBvc-45" value="8. SELECT * FROM Users WHERE" style="edgeLabel;html=1;align=center;verticalAlign=middle;resizable=0;points=[];" parent="h6TdtqrDm6KFS-MrkBvc-44" vertex="1" connectable="0">
          <mxGeometry x="0.1672" y="-3" relative="1" as="geometry">
            <mxPoint x="49" y="-13" as="offset" />
          </mxGeometry>
        </mxCell>
        <mxCell id="h6TdtqrDm6KFS-MrkBvc-46" value="" style="rounded=0;whiteSpace=wrap;html=1;" parent="1" vertex="1">
          <mxGeometry x="1330" y="520" width="10" height="30" as="geometry" />
        </mxCell>
        <mxCell id="h6TdtqrDm6KFS-MrkBvc-49" value="" style="endArrow=none;dashed=1;html=1;dashPattern=1 3;strokeWidth=2;rounded=0;entryX=0.5;entryY=0;entryDx=0;entryDy=0;exitX=0.5;exitY=1;exitDx=0;exitDy=0;" parent="1" source="h6TdtqrDm6KFS-MrkBvc-4" target="h6TdtqrDm6KFS-MrkBvc-21" edge="1">
          <mxGeometry width="50" height="50" relative="1" as="geometry">
            <mxPoint x="530" y="400" as="sourcePoint" />
            <mxPoint x="580" y="350" as="targetPoint" />
          </mxGeometry>
        </mxCell>
        <mxCell id="h6TdtqrDm6KFS-MrkBvc-50" value="" style="endArrow=none;dashed=1;html=1;dashPattern=1 3;strokeWidth=2;rounded=0;entryX=0.5;entryY=0;entryDx=0;entryDy=0;exitX=0.5;exitY=1;exitDx=0;exitDy=0;" parent="1" source="h6TdtqrDm6KFS-MrkBvc-7" target="h6TdtqrDm6KFS-MrkBvc-37" edge="1">
          <mxGeometry width="50" height="50" relative="1" as="geometry">
            <mxPoint x="530" y="400" as="sourcePoint" />
            <mxPoint x="580" y="350" as="targetPoint" />
          </mxGeometry>
        </mxCell>
        <mxCell id="h6TdtqrDm6KFS-MrkBvc-51" value="" style="endArrow=none;dashed=1;html=1;dashPattern=1 3;strokeWidth=2;rounded=0;exitX=0.5;exitY=0;exitDx=0;exitDy=0;entryX=0.5;entryY=1;entryDx=0;entryDy=0;" parent="1" source="h6TdtqrDm6KFS-MrkBvc-40" target="h6TdtqrDm6KFS-MrkBvc-8" edge="1">
          <mxGeometry width="50" height="50" relative="1" as="geometry">
            <mxPoint x="930" y="400" as="sourcePoint" />
            <mxPoint x="980" y="350" as="targetPoint" />
          </mxGeometry>
        </mxCell>
        <mxCell id="h6TdtqrDm6KFS-MrkBvc-52" value="" style="endArrow=none;dashed=1;html=1;dashPattern=1 3;strokeWidth=2;rounded=0;entryX=0.5;entryY=0;entryDx=0;entryDy=0;exitX=0.5;exitY=1;exitDx=0;exitDy=0;" parent="1" source="h6TdtqrDm6KFS-MrkBvc-9" target="h6TdtqrDm6KFS-MrkBvc-46" edge="1">
          <mxGeometry width="50" height="50" relative="1" as="geometry">
            <mxPoint x="1170" y="400" as="sourcePoint" />
            <mxPoint x="1220" y="350" as="targetPoint" />
          </mxGeometry>
        </mxCell>
        <mxCell id="h6TdtqrDm6KFS-MrkBvc-53" value="" style="endArrow=none;dashed=1;html=1;dashPattern=1 3;strokeWidth=2;rounded=0;entryX=0.5;entryY=1;entryDx=0;entryDy=0;exitX=0.5;exitY=0;exitDx=0;exitDy=0;" parent="1" source="h6TdtqrDm6KFS-MrkBvc-43" target="h6TdtqrDm6KFS-MrkBvc-10" edge="1">
          <mxGeometry width="50" height="50" relative="1" as="geometry">
            <mxPoint x="1170" y="400" as="sourcePoint" />
            <mxPoint x="1220" y="350" as="targetPoint" />
          </mxGeometry>
        </mxCell>
        <mxCell id="h6TdtqrDm6KFS-MrkBvc-55" value="" style="endArrow=none;dashed=1;html=1;dashPattern=1 3;strokeWidth=2;rounded=0;entryX=0.5;entryY=1;entryDx=0;entryDy=0;exitX=0.5;exitY=0;exitDx=0;exitDy=0;" parent="1" source="h6TdtqrDm6KFS-MrkBvc-5" target="h6TdtqrDm6KFS-MrkBvc-3" edge="1">
          <mxGeometry width="50" height="50" relative="1" as="geometry">
            <mxPoint x="620" y="420" as="sourcePoint" />
            <mxPoint x="670" y="370" as="targetPoint" />
          </mxGeometry>
        </mxCell>
        <mxCell id="h6TdtqrDm6KFS-MrkBvc-56" value="" style="endArrow=none;dashed=1;html=1;dashPattern=1 3;strokeWidth=2;rounded=0;entryX=0.5;entryY=0;entryDx=0;entryDy=0;exitX=0.5;exitY=1;exitDx=0;exitDy=0;" parent="1" source="h6TdtqrDm6KFS-MrkBvc-21" target="h6TdtqrDm6KFS-MrkBvc-32" edge="1">
          <mxGeometry width="50" height="50" relative="1" as="geometry">
            <mxPoint x="570" y="290" as="sourcePoint" />
            <mxPoint x="600" y="370" as="targetPoint" />
          </mxGeometry>
        </mxCell>
        <mxCell id="h6TdtqrDm6KFS-MrkBvc-58" value="" style="endArrow=classic;html=1;rounded=0;exitX=1.133;exitY=0.873;exitDx=0;exitDy=0;entryX=0;entryY=0.75;entryDx=0;entryDy=0;exitPerimeter=0;" parent="1" source="h6TdtqrDm6KFS-MrkBvc-32" target="h6TdtqrDm6KFS-MrkBvc-6" edge="1">
          <mxGeometry width="50" height="50" relative="1" as="geometry">
            <mxPoint x="550" y="460" as="sourcePoint" />
            <mxPoint x="600" y="410" as="targetPoint" />
          </mxGeometry>
        </mxCell>
        <mxCell id="h6TdtqrDm6KFS-MrkBvc-59" value="9. show" style="edgeLabel;html=1;align=center;verticalAlign=middle;resizable=0;points=[];" parent="h6TdtqrDm6KFS-MrkBvc-58" vertex="1" connectable="0">
          <mxGeometry x="-0.1407" y="1" relative="1" as="geometry">
            <mxPoint x="7" y="-9" as="offset" />
          </mxGeometry>
        </mxCell>
        <mxCell id="h6TdtqrDm6KFS-MrkBvc-60" value="" style="endArrow=none;dashed=1;html=1;dashPattern=1 3;strokeWidth=2;rounded=0;entryX=0.5;entryY=1;entryDx=0;entryDy=0;" parent="1" target="h6TdtqrDm6KFS-MrkBvc-5" edge="1">
          <mxGeometry width="50" height="50" relative="1" as="geometry">
            <mxPoint x="240" y="250" as="sourcePoint" />
            <mxPoint x="590" y="330" as="targetPoint" />
          </mxGeometry>
        </mxCell>
        <mxCell id="h6TdtqrDm6KFS-MrkBvc-61" value="" style="endArrow=none;dashed=1;html=1;dashPattern=1 3;strokeWidth=2;rounded=0;entryX=0.5;entryY=1;entryDx=0;entryDy=0;exitX=0.5;exitY=0;exitDx=0;exitDy=0;" parent="1" source="h6TdtqrDm6KFS-MrkBvc-28" target="h6TdtqrDm6KFS-MrkBvc-20" edge="1">
          <mxGeometry width="50" height="50" relative="1" as="geometry">
            <mxPoint x="500" y="370" as="sourcePoint" />
            <mxPoint x="550" y="320" as="targetPoint" />
          </mxGeometry>
        </mxCell>
        <mxCell id="h6TdtqrDm6KFS-MrkBvc-62" value="" style="rounded=0;whiteSpace=wrap;html=1;" parent="1" vertex="1">
          <mxGeometry x="310" y="440" width="10" height="20" as="geometry" />
        </mxCell>
        <mxCell id="h6TdtqrDm6KFS-MrkBvc-64" value="" style="endArrow=classic;html=1;rounded=0;entryX=1;entryY=1;entryDx=0;entryDy=0;exitX=0;exitY=1;exitDx=0;exitDy=0;" parent="1" source="h6TdtqrDm6KFS-MrkBvc-32" target="h6TdtqrDm6KFS-MrkBvc-62" edge="1">
          <mxGeometry width="50" height="50" relative="1" as="geometry">
            <mxPoint x="500" y="410" as="sourcePoint" />
            <mxPoint x="550" y="360" as="targetPoint" />
          </mxGeometry>
        </mxCell>
        <mxCell id="h6TdtqrDm6KFS-MrkBvc-65" value="10. hide" style="edgeLabel;html=1;align=center;verticalAlign=middle;resizable=0;points=[];" parent="h6TdtqrDm6KFS-MrkBvc-64" vertex="1" connectable="0">
          <mxGeometry x="-0.1512" relative="1" as="geometry">
            <mxPoint x="-18" y="-10" as="offset" />
          </mxGeometry>
        </mxCell>
        <mxCell id="h6TdtqrDm6KFS-MrkBvc-66" value="" style="endArrow=none;dashed=1;html=1;dashPattern=1 3;strokeWidth=2;rounded=0;entryX=0.5;entryY=1;entryDx=0;entryDy=0;exitX=0.5;exitY=0;exitDx=0;exitDy=0;" parent="1" source="h6TdtqrDm6KFS-MrkBvc-62" target="h6TdtqrDm6KFS-MrkBvc-28" edge="1">
          <mxGeometry width="50" height="50" relative="1" as="geometry">
            <mxPoint x="500" y="410" as="sourcePoint" />
            <mxPoint x="550" y="360" as="targetPoint" />
          </mxGeometry>
        </mxCell>
        <mxCell id="h6TdtqrDm6KFS-MrkBvc-67" value="" style="endArrow=classic;html=1;rounded=0;exitX=1;exitY=1;exitDx=0;exitDy=0;exitPerimeter=0;entryX=0;entryY=0;entryDx=0;entryDy=0;" parent="1" source="h6TdtqrDm6KFS-MrkBvc-1" target="h6TdtqrDm6KFS-MrkBvc-5" edge="1">
          <mxGeometry width="50" height="50" relative="1" as="geometry">
            <mxPoint x="490" y="350" as="sourcePoint" />
            <mxPoint x="540" y="300" as="targetPoint" />
          </mxGeometry>
        </mxCell>
        <mxCell id="h6TdtqrDm6KFS-MrkBvc-68" value="1. main" style="edgeLabel;html=1;align=center;verticalAlign=middle;resizable=0;points=[];" parent="h6TdtqrDm6KFS-MrkBvc-67" vertex="1" connectable="0">
          <mxGeometry x="0.0667" y="2" relative="1" as="geometry">
            <mxPoint x="-8" y="-8" as="offset" />
          </mxGeometry>
        </mxCell>
        <mxCell id="h6TdtqrDm6KFS-MrkBvc-69" value="" style="rounded=0;whiteSpace=wrap;html=1;" parent="1" vertex="1">
          <mxGeometry x="715" y="480" width="10" height="60" as="geometry" />
        </mxCell>
        <mxCell id="h6TdtqrDm6KFS-MrkBvc-70" value="" style="rounded=0;whiteSpace=wrap;html=1;" parent="1" vertex="1">
          <mxGeometry x="970" y="490" width="10" height="60" as="geometry" />
        </mxCell>
        <mxCell id="h6TdtqrDm6KFS-MrkBvc-72" value="" style="endArrow=classic;html=1;rounded=0;entryX=0;entryY=0;entryDx=0;entryDy=0;exitX=1;exitY=0.25;exitDx=0;exitDy=0;" parent="1" source="h6TdtqrDm6KFS-MrkBvc-69" target="h6TdtqrDm6KFS-MrkBvc-70" edge="1">
          <mxGeometry width="50" height="50" relative="1" as="geometry">
            <mxPoint x="770" y="520" as="sourcePoint" />
            <mxPoint x="880" y="400" as="targetPoint" />
          </mxGeometry>
        </mxCell>
        <mxCell id="h6TdtqrDm6KFS-MrkBvc-75" value="11. getAllPresentWorkers" style="edgeLabel;html=1;align=center;verticalAlign=middle;resizable=0;points=[];" parent="h6TdtqrDm6KFS-MrkBvc-72" vertex="1" connectable="0">
          <mxGeometry x="-0.0069" y="1" relative="1" as="geometry">
            <mxPoint x="-1" y="-12" as="offset" />
          </mxGeometry>
        </mxCell>
        <mxCell id="h6TdtqrDm6KFS-MrkBvc-76" value="" style="endArrow=classic;html=1;rounded=0;entryX=0;entryY=0.5;entryDx=0;entryDy=0;exitX=1;exitY=0.75;exitDx=0;exitDy=0;" parent="1" source="h6TdtqrDm6KFS-MrkBvc-70" target="h6TdtqrDm6KFS-MrkBvc-46" edge="1">
          <mxGeometry width="50" height="50" relative="1" as="geometry">
            <mxPoint x="1020" y="450" as="sourcePoint" />
            <mxPoint x="1070" y="400" as="targetPoint" />
          </mxGeometry>
        </mxCell>
        <mxCell id="h6TdtqrDm6KFS-MrkBvc-77" value="12. findAll" style="edgeLabel;html=1;align=center;verticalAlign=middle;resizable=0;points=[];" parent="h6TdtqrDm6KFS-MrkBvc-76" vertex="1" connectable="0">
          <mxGeometry x="-0.0457" y="3" relative="1" as="geometry">
            <mxPoint x="-47" y="-12" as="offset" />
          </mxGeometry>
        </mxCell>
        <mxCell id="h6TdtqrDm6KFS-MrkBvc-78" value="" style="endArrow=none;dashed=1;html=1;dashPattern=1 3;strokeWidth=2;rounded=0;entryX=0.5;entryY=1;entryDx=0;entryDy=0;exitX=0.5;exitY=0;exitDx=0;exitDy=0;" parent="1" source="h6TdtqrDm6KFS-MrkBvc-69" target="h6TdtqrDm6KFS-MrkBvc-6" edge="1">
          <mxGeometry width="50" height="50" relative="1" as="geometry">
            <mxPoint x="870" y="450" as="sourcePoint" />
            <mxPoint x="920" y="400" as="targetPoint" />
          </mxGeometry>
        </mxCell>
        <mxCell id="h6TdtqrDm6KFS-MrkBvc-79" value="" style="endArrow=none;dashed=1;html=1;dashPattern=1 3;strokeWidth=2;rounded=0;entryX=0.5;entryY=1;entryDx=0;entryDy=0;exitX=0.5;exitY=0;exitDx=0;exitDy=0;" parent="1" source="h6TdtqrDm6KFS-MrkBvc-70" target="h6TdtqrDm6KFS-MrkBvc-37" edge="1">
          <mxGeometry width="50" height="50" relative="1" as="geometry">
            <mxPoint x="870" y="450" as="sourcePoint" />
            <mxPoint x="920" y="400" as="targetPoint" />
          </mxGeometry>
        </mxCell>
        <mxCell id="2qfQ3oLj4ezPMn0jfbry-1" value="" style="rounded=0;whiteSpace=wrap;html=1;" vertex="1" parent="1">
          <mxGeometry x="715" y="580" width="10" height="40" as="geometry" />
        </mxCell>
        <mxCell id="2qfQ3oLj4ezPMn0jfbry-2" value="" style="endArrow=classic;html=1;rounded=0;entryX=0;entryY=0;entryDx=0;entryDy=0;" edge="1" parent="1" target="2qfQ3oLj4ezPMn0jfbry-1">
          <mxGeometry width="50" height="50" relative="1" as="geometry">
            <mxPoint x="50" y="580" as="sourcePoint" />
            <mxPoint x="610" y="460" as="targetPoint" />
          </mxGeometry>
        </mxCell>
        <mxCell id="2qfQ3oLj4ezPMn0jfbry-3" value="13. Select a worker" style="edgeLabel;html=1;align=center;verticalAlign=middle;resizable=0;points=[];" vertex="1" connectable="0" parent="2qfQ3oLj4ezPMn0jfbry-2">
          <mxGeometry x="-0.0977" y="-2" relative="1" as="geometry">
            <mxPoint y="-12" as="offset" />
          </mxGeometry>
        </mxCell>
        <mxCell id="2qfQ3oLj4ezPMn0jfbry-6" value="" style="endArrow=classic;html=1;rounded=0;entryX=0;entryY=0.5;entryDx=0;entryDy=0;" edge="1" parent="1" target="2qfQ3oLj4ezPMn0jfbry-1">
          <mxGeometry width="50" height="50" relative="1" as="geometry">
            <mxPoint x="60" y="600" as="sourcePoint" />
            <mxPoint x="600" y="500" as="targetPoint" />
          </mxGeometry>
        </mxCell>
        <mxCell id="2qfQ3oLj4ezPMn0jfbry-7" value="14. Send task to worker" style="edgeLabel;html=1;align=center;verticalAlign=middle;resizable=0;points=[];" vertex="1" connectable="0" parent="2qfQ3oLj4ezPMn0jfbry-6">
          <mxGeometry x="-0.0534" y="1" relative="1" as="geometry">
            <mxPoint y="-9" as="offset" />
          </mxGeometry>
        </mxCell>
        <mxCell id="2qfQ3oLj4ezPMn0jfbry-19" value="" style="endArrow=none;dashed=1;html=1;dashPattern=1 3;strokeWidth=2;rounded=0;entryX=0.5;entryY=1;entryDx=0;entryDy=0;exitX=0.5;exitY=0;exitDx=0;exitDy=0;" edge="1" parent="1" source="2qfQ3oLj4ezPMn0jfbry-1" target="h6TdtqrDm6KFS-MrkBvc-69">
          <mxGeometry width="50" height="50" relative="1" as="geometry">
            <mxPoint x="780" y="570" as="sourcePoint" />
            <mxPoint x="760" y="550" as="targetPoint" />
          </mxGeometry>
        </mxCell>
        <mxCell id="2qfQ3oLj4ezPMn0jfbry-20" value="" style="rounded=0;whiteSpace=wrap;html=1;" vertex="1" parent="1">
          <mxGeometry x="970" y="600" width="10" height="60" as="geometry" />
        </mxCell>
        <mxCell id="2qfQ3oLj4ezPMn0jfbry-21" value="" style="endArrow=classic;html=1;rounded=0;exitX=1;exitY=1;exitDx=0;exitDy=0;entryX=0;entryY=0.25;entryDx=0;entryDy=0;" edge="1" parent="1" source="2qfQ3oLj4ezPMn0jfbry-1" target="2qfQ3oLj4ezPMn0jfbry-20">
          <mxGeometry width="50" height="50" relative="1" as="geometry">
            <mxPoint x="900" y="550" as="sourcePoint" />
            <mxPoint x="950" y="500" as="targetPoint" />
          </mxGeometry>
        </mxCell>
        <mxCell id="2qfQ3oLj4ezPMn0jfbry-22" value="15. sendTask" style="edgeLabel;html=1;align=center;verticalAlign=middle;resizable=0;points=[];" vertex="1" connectable="0" parent="2qfQ3oLj4ezPMn0jfbry-21">
          <mxGeometry x="-0.0042" relative="1" as="geometry">
            <mxPoint x="-7" y="-8" as="offset" />
          </mxGeometry>
        </mxCell>
        <mxCell id="2qfQ3oLj4ezPMn0jfbry-23" value="" style="endArrow=none;dashed=1;html=1;dashPattern=1 3;strokeWidth=2;rounded=0;entryX=0.5;entryY=1;entryDx=0;entryDy=0;exitX=0.5;exitY=0;exitDx=0;exitDy=0;" edge="1" parent="1" source="2qfQ3oLj4ezPMn0jfbry-20" target="h6TdtqrDm6KFS-MrkBvc-70">
          <mxGeometry width="50" height="50" relative="1" as="geometry">
            <mxPoint x="900" y="550" as="sourcePoint" />
            <mxPoint x="950" y="500" as="targetPoint" />
          </mxGeometry>
        </mxCell>
        <mxCell id="2qfQ3oLj4ezPMn0jfbry-24" value="WorkerWindow" style="rounded=0;whiteSpace=wrap;html=1;" vertex="1" parent="1">
          <mxGeometry x="1130" y="630" width="100" height="30" as="geometry" />
        </mxCell>
        <mxCell id="2qfQ3oLj4ezPMn0jfbry-25" value="" style="endArrow=classic;html=1;rounded=0;exitX=1;exitY=0.75;exitDx=0;exitDy=0;entryX=0;entryY=0.5;entryDx=0;entryDy=0;" edge="1" parent="1" source="2qfQ3oLj4ezPMn0jfbry-20" target="2qfQ3oLj4ezPMn0jfbry-24">
          <mxGeometry width="50" height="50" relative="1" as="geometry">
            <mxPoint x="1010" y="490" as="sourcePoint" />
            <mxPoint x="1060" y="440" as="targetPoint" />
          </mxGeometry>
        </mxCell>
        <mxCell id="2qfQ3oLj4ezPMn0jfbry-26" value="16. update" style="edgeLabel;html=1;align=center;verticalAlign=middle;resizable=0;points=[];" vertex="1" connectable="0" parent="2qfQ3oLj4ezPMn0jfbry-25">
          <mxGeometry x="-0.1067" y="-4" relative="1" as="geometry">
            <mxPoint x="3" y="-19" as="offset" />
          </mxGeometry>
        </mxCell>
      </root>
    </mxGraphModel>
  </diagram>
</mxfile>
